<svg xmlns="http://www.w3.org/2000/svg" id="Layer_17" data-name="Layer 17" viewBox="0 0 892.3 954.7">
  <defs>
    <style>
      .cls-1,.cls-12{fill:none;stroke:#000}.cls-1{stroke-miterlimit:10;stroke-width:5px}.cls-2{fill:#bad80a;opacity:.4}.cls-3{fill:#09cc09;opacity:.44}.cls-12{stroke-linejoin:round;stroke-width:3px}
    </style>
  </defs>
  <title>MAP1</title>
  <path id="oaxaca" d="M1464 419v-8l-3-5-4 1-4-5-2-3-5-1-2-8h-6v-13h-7l-1-5 4 1-2-10-3-4v-5l-15-18v-7l-9-6-16-6-6 2-12-3h-12l-13-13-12-5-7-5-9-8h-3l-9-9v11l-2 5 6 9v4l-7 6-1 8-5 1 5 6-5 5-7-5-5 3 5 10-7 4 5 8 6-6 2 9h8l2 6-4 7 4 2-4 12h-7l-1 19 12 2v21h-22l-10-9v7h-6l1 3-10 7-1 11-5 4h-7l-5 4v5l1 4-4 5-1 7-4 4h-2v6l-2 5-3 3h-17l-4 2-7 1-2 2-3-3-3 2v6l-4 2-9-1-5-4-12-1-3 3-2 7-17 18v8l-1 1h-8l-2 2h-7v1h-7l-7 1-8-6-3 1-5-4-12-14-1-4-7 2-3 3-1 5 2 4h-7l-6 5-5-5-8 1-12 7h-14l-10 6h-6l-5 9-2 2h-4l-2 5-10 9-6-3-4-2-5 3-6 15h-7l-5 3v5l-4 7-3 5-13 1-1-1h-6l-6-7-7-1-3 6-7-6v-3l-4-5v-6l-1-6v-7l-18-15v-10l-21-12 7-10-1-19-1-15-1-7-7-8h-2l-4 1-9 1-8 1-6 5h-16l-16-4-6 2-8 10-6 11 2 7-3 2-5 1-2 3-7 10 4 2 4 9h-4l-1 1v5l-7 7v15l3 7 5 8 12 4 6 3v2l-5 6-5 2-1 7-3 7v13l7 11 3-7 5-5 5-1 5-2v-5l-4-3v-9l12-15h5l8 5 1 5 21 14v8h-10l-4-5-10 3-4 1h-5l1 12-3 4-2 2-10 4-3 2-3 4v8l-2 1v4l-2 1v3h-5l-1 3h-8l-9-4h-6l-4 2-8 1-5-3h-10v-12l-5-4 5-6 1-3h-10l-2-2h-3l-4 3-5-2v-4l-10-1-9-3-2-3-3 2-4 6-3-4h-4l-4-1-4 3-7-3-6 2-12-3v4l-9 5-7 5-3 7v11l2 5-3 6-5 2-6 1-3 2-4 6v347h887V423h-5Z" class="cls-1" transform="translate(-582 -64)"/>
  <path id="veracruz" d="M1035 130v7l3 12 5 5v11h-14l-12 12-4 7-2 7h-6v12l-6 8-9 2v9h5l6 6-5 5-2 19 1 17 6 3 3 7 9-4 7 10h4l5 13h9l5-10h5l7 10h11l3 4h7v6l9 2 3 5v11l5 5 10 16v4l15 17v15l3-6a34 34 0 0 0 14-16c5-11 0-3 0-3l13-5 8-7h11v-6l11-6 14 11 7-4 3-3h4l5 7h4l6 11 9 2v8l10-3v-8l13 1v16l4 6 5 1v8l-3 6 6 6 5 6 14 2v7h-10l10 9h22v-21l-12-2 1-19h7l4-12-4-2 4-8-2-5h-8l-2-9-6 6-5-8 7-4-5-10 5-3 7 5 5-5-5-6 5-1 1-8 7-6v-4l-6-9 1-5v-11l10 9h3l9 8 7 5 12 5 13 13h12l12 3 6-2 16 6 9 6v7l15 18v5l3 4 2 10-4-1 1 5h7v13h6l2 8 5 1 2 3 4 5 4-1 3 5v8l3 4h5V67h-439l-4 15 1 15-7 15 12 12Z" class="cls-1" transform="translate(-582 -64)"/>
  <path id="puebla" d="m1033 67-4 14 2 7v8l-8 15 13 13-1 6v7l3 12 5 5v11h-14l-12 12-4 7-2 7h-6v12l-6 8-9 2v9h5l6 6-5 5-2 19 1 17 6 3 3 7 9-4 7 10h4l5 13h9l5-10h5l7 10h11l3 4h7v6l9 2 3 5v11l5 5 10 16v4l15 17v15l3-6a34 34 0 0 0 14-16c5-11 0-3 0-3l13-5 8-7h11v-6l11-6 14 11 7-4 3-3h4l5 7h4l6 11 9 2v8l10-3v-8l13 1v16l4 6 5 1v8l-3 6 6 6 5 6 14 2v7h-10v7h-6l1 3-10 7-1 11-5 4h-7l-5 4v5l1 4-4 5-1 7-4 4h-2v6l-2 5-3 3h-17l-4 2-7 1-2 2-3-3-3 2v6l-4 2-9-1-5-4-12-1-3 3-2 7-17 18v8l-1 1h-8l-2 2h-7v1h-7l-7 1-8-6-3 1-5-4-12-14-1-4-7 2-3 3-1 5 2 4h-7l-6 5-5-5-8 1-12 7h-14l-10 6h-6l-5 9-2 2h-4l-2 5-10 9-6-3-4-2-5 3-6 15h-7l-5 3v5l-4 7-3 5-13 1-1-1h-6l-6-7-7-1-3 6-7-6v-3l-4-5v-6l-1-6v-7l-18-15v-10l-21-12 7-10-1-19-1-15-1-7-7-8h-2l-4 1-9 1-8 1-6 5h-16l-16-4-6 2-8 10-6 11 2 7-3 2-5 1-2 3-7 10 4 2 4 9h-4l-2 1 1 5-7 7v15l3 7 5 8 12 4 6 3v2l-5 6-5 2-1 7-3 7v13l7 11 3-7 5-5 5-1 5-2v-5l-4-3v-9l12-15h5l8 5 1 5 21 14v8h-10l-4-5-10 3-4 1h-5l1 12-3 4-2 2-10 4-3 2-3 4v8l-2 1v4l-2 1v3h-5l-1 3h-8l-9-4h-6l-4 2-8 1-5-3h-10v-12l-5-4 5-6 1-3h-10l-2-2h-3l-4 3-5-2v-4l-10-1-9-3-2-3-3 2-4 6-3-4h-4l-4-1-4 3-7-3-6 2-12-3v4l-9 5-7 5-3 7v11l2 5-3 6-5 2-6 1-3 2-4 6V67z" class="cls-1" transform="translate(-582 -64)"/>
  <g id="Regiones_de_Oaxaca._Municipios_incluidos." data-name="Regiones de Oaxaca. Municipios incluidos.">
    <g id="DISTRITO_11" data-name="DISTRITO 11">
      <path id="DISTRITO_11_SUR" d="m641 707-4 4-8 18 3 32 4 19 15 9 17 3v5l8 3 5 5 26-11 8-18 21-13-3-5 1-2h2v-6l3-4 8-2v-2h-4l-6-9-10-8 1-6-9-6-8-4-4-5-5-2-2 3-10-7-2 3-4-1-2 5-4-3-15 3 1 4-3 3-3-3-1-3-4 3-2-4-6 1z" class="cls-2" data-name="DISTRITO 11 SUR"/>
      <path id="DISTRITO_11_NORTE" d="m305 501-14-2-8 16-10 2v4l8 3 11 11-1 28 2 3 2-6 4-1-2-7 6 2 2 3h25l15-4v-20l-12-3-12-9-7 9-6-15z" class="cls-2" data-name="DISTRITO 11 NORTE"/>
    </g>
    <g id="DISTRITO_10" data-name="DISTRITO 10">
      <path id="DISTRITO_10_NORTE" d="m1056 897 7 22 13-4 4 3 3 24 14 3 10 4v-8l6-7 3-9v-6l-27-13 17-15 5 6h25l11-14 9 3-2-20-8-2 3-8h13l1-5h6l8-9-1-7-10-2-3-4-3 3h-8l-1 6 8 7v9l-11-4-10-10 2-9-4-17 1-27-2-6-15-15-5 2-8-8-2-9-3-33-10-3v-6l-8-3-19 9-1 5 6 5 3 10 5 6 1 8 1 8-5 10 3 7 3 38h-16l-29 30v10l3 1-6 4 2 25 12 11 3 4Z" class="cls-3" data-name="DISTRITO 10 NORTE" transform="translate(-582 -64)"/>
      <path id="DISTRITO_10_SUR" d="M442 925h12l-2 9 8 3 3 7 2 5-6 3-12-7-5 1-3-5v-8z" class="cls-3" data-name="DISTRITO 10 SUR"/>
    </g>
    <g id="DISTRITO_5" data-name="DISTRITO 5">
      <path id="DISTRITO_5-2" d="m1090 707 1 8h9l4 33 5 10 3 8h7l9 6 6 8 3 7v57l12 7h7v-4l-7-10 2-5 9 1v-4l5 2v5l9-2 4 8 2 22 10 16-2 19 13-6 16-9 4-15 17-5 3-1 9-1v-3l-2-1-13-4-5-5-7-2-6-10-4-25-1-18 3-7 8-15 8-2 4 4 4-4 5 6 2-8h17l9-5 9 5 5-2 7 9 4-7 2-14h13l4 6 6-2 5-7-5-1-4-2-2 2-11-5v-6l5-5-6 1 3-6 3-16-13-1-5-17 2-5-2-3-6-3-11-2-9-4-11-8v-5l-19-18h-5l-4-5-4 1-6 1-25-7v4l-18 1-4 7h-12l-4-8-12 21 8 12-19 3-14 8-9 11-3 5-10 3Z" data-name="DISTRITO 5" style="fill:#00bcf2;opacity:.2" transform="translate(-582 -64)"/>
    </g>
    <g id="DISTRITO_4" data-name="DISTRITO 4">
      <path id="DISTRITO_4-2" d="M471 463v28l10 35v31l-24 30-2 49 23 9 3 6h5l15-10 6 2 5-3 9-1 9-15 11-10 8-2 19-3-9-13 6-6 6-10 5 5h11l3-7 13-3h7v-3l13 5-10-15v-5l4-2 3-5 5-1 9-9 17-1 10-11v-12l-11-10-1 3h-5l-11-12-7 12-4-1v-4l-5-1-8 1-5 5-3-7-12-3v-14l-2-2 1-4-14-12 1-6-2-3-2-12-4-2-12 14-2 9-16 4h-14l-9-5-7-1-13-20-10 3v12z" data-name="DISTRITO 4" style="opacity:.4;fill:#00188f"/>
    </g>
    <g id="DISTRITO_3" data-name="DISTRITO 3">
      <path id="DISTRITO_3-2" d="M345 532v21l-11 2-6 4-8-2h-12l-5-3h-6v3l23 17v6l8-5 30 14 19 17 6 8h3l3 16v4l8 21-20 4 5 10h8l7-9 14 1-3 8 1 23h-7l-8 2-1 3-10 5 7 13 21-10 9-1 7 3v7l5 1v5h4l11-2 15 4 28-16 7-14v-6l-3-10-4-6-1-5-8-9v-5l-2-5-24-10 2-51 24-28 1-29-9-37-1-27-5-6-20 9-15-2-9 8-6 2-7 7-4 2-9 12-14-3-12 18-7-1-4 12-6 8z" data-name="DISTRITO 3" style="opacity:.4;fill:#68217a"/>
    </g>
  </g>
  <g id="REGIÓN_CHAZUMBA" data-name="REGIÓN CHAZUMBA">
    <path id="REGIÓN_CHAZUMBA-2" d="m777 472-5 7-4 6-4 6 4 5-2 4-6 2-4 3-2 4-3 5 1 3 5 5 8 3h15l5-8h5s0-15 2-14l10 3v11l8 8-16 15v2l-11 3v5l8 9v7l-4 5-13 2-9-4 2-7-6-5h-12l5 11 16 5 2 4-10 8v8h9l4-3 5-3 12-10 12 4 2 5 14 12 10-2 2-19 5 1 5 9h13l2-6 7-1 3-6 3-3 3-7 15 2-3-9-16-12v-10l-20-11 6-12-1-32-5-15-28 3-6 5h-14l-17-5h-4Z" data-name="REGIÓN CHAZUMBA" style="opacity:.4;fill:#ec008c" transform="translate(-582 -64)"/>
  </g>
  <g id="REGIÓN_SIERRA_NEGRA" data-name="REGIÓN SIERRA NEGRA">
    <path id="REGIÓN_SIERRA_NEGRA-2" d="m1020 460-6-8 3-3h5l6-8 3-8-3-11h-14l5-7-5-2-9-10v-10l13-9h5l8-7 9 8 5-8 5 7 11-5 5 4 1 11 10-1 6-7h6l5-4h4l2 8h10l31-37 16-7v9l22 28 10-6v12l-3 1-3-5-7 11-2 7-4 3-8 11-8-9h-10l-3 5-9 2-3 9-3 2v7l-34-8-9 8 3 3v6l5 5 10-3 3-3h6l16-5 1 7 2 4-5 9 5 7 6 7h12l6-5-1-3 12-12 9 4 11-7 1-10 4 1 2-6-2-4 7-2 12-6 7 5 6 5-3 1 3 7h3l3 7-6 7 2 9-10 2-5-4-8 1v5l2 5v4l-6 3 2 2 3 7-3 4h-7l-3 7-4 3-9-2-4-3-7-1-6 1-3 8-5 6-12 13-1 9-15 4h-15l-11-6h-6l-13-19v-7l-8-7v-6l-1-8-7-7-3-10-14-4-7-14Z" data-name="REGIÓN SIERRA NEGRA" style="opacity:.4;fill:#e81123" transform="translate(-582 -64)"/>
  </g>
  <g id="REGIÓN_DEL_VALLE_ZAPOTITLÁN-TEHUACÁN" data-name="REGIÓN DEL VALLE ZAPOTITLÁN-TEHUACÁN">
    <path id="REGIÓN_DEL_VALLE_ZAPOTITLÁN-TEHUACÁN-2" d="m908 388-14-11 7-16-7-4 17-7-11-9-15 4-14 12-15 2-6 1-5-8 4-11-4-5-3 3-6-13-7 3-13-3-7 2-7-6 3-5-18-17-7 12-10 9-11-12-4 13s-3 25 0 24l17-2v10l5 2 12-12-2 19 6 7 9 7 4 29-4 6-7-3-12-5 9 27-5 5v17l-2 13 16 4 13 2 10-6 18-1 6-1 6 9 1 22v10l2 9-9 8 7 5 8 5 6 13 16 12 4 16 1 6 8 16 5-9 6 3 6 6h19l13-18 12-3 5-19 15 6 20-21 15-9s8 4 12 2l23-11 4 5 13-4v-10h8l3-10-8-6v-6l-3-3 2-7h-4l-6-14-15-7-6-13-17 13-19-13v-16l-4-19 10 4 7-3-8-9-2-16 6-7-7-19 6-6-2-7 7 5 16-21 1-6h14l2-10 10-7-14-2-8 11-11-7-6 8-6-3-6 7v-6h-14v7l-3 5-1 7-9-1-7 5-1 13v5l-6 2-2-8-8-4-3 14-7 2-4-20-13-14h-9l-2 7 3 4 1 5 9 10 7 6-4 7-9 12-9 7Z" data-name="REGIÓN DEL VALLE ZAPOTITLÁN-TEHUACÁN" style="opacity:.4;fill:#ff8c00" transform="translate(-582 -64)"/>
  </g>
  <g id="REGIÓN_SEPTENTRIONAL" data-name="REGIÓN SEPTENTRIONAL">
    <g id="REGIÓN_SEPTENTRIONAL-2" data-name="REGIÓN SEPTENTRIONAL" style="opacity:.4">
      <path id="REGIÓN_SEPTENTRIONAL-3" d="m983 197-12-14h-14l2-6-7 3-4-12-10 7-7-2-9-1-19-43-6 6-4-2-2 5-2 18-7 13s-4-5-6-4h-33l1-7h-12v-4l-15-8v-6l3-2-3-5-2 4-8-2-3 6v12l-7 2v8l-6 2-5-1s-9 22-7 22l8 2-7 6 13 13-4 12 12 1 8 6-6 15 20 9 1 4-8 18v6l-4 3-12 18v11l9 5-3 8 9 3h8l11 4 8-6v9l3 6 5-4 1 6v3l-3 8 5 8 12-2h6l10-7 8-6 14-5 10 6 1 6-12 3-3 1 1 5h3l-3 10v5l12 14 9-2 19-24-21-25 4-10h7l10 12 5 8v12l4 4 5-1 4-13 7 1 2 8h4l2-5 1-16 7-2 9-1v-7l7-10-4-5-28 17-3 5h-2l2-12 9-3 10-4 7-9-6-9-1-3-15-2 2-10 11-2 14-11 6-8-4-10 1-8 3-10 5-7-13-5 2-9 11-7-3-2-6-3-3 3-10-1Z" data-name="REGIÓN SEPTENTRIONAL" style="fill:#fff100" transform="translate(-582 -64)"/>
    </g>
  </g>
  <path d="m247 112-4 2 12 29 3-1 2 3 7-1 2 2v8l-8 2 76 71-8 14-8 4 2 7 2 2h4v5l23 12-1 4-1 3h-10l-3 9 5 2-2 17 4 1v6h-14l-15-1-9-10-27 13-6 8-2-1-20 15 1 12 2 1v13h-1v12h1v2h1l-1 4h5l3 2 3 2 5 10-4 6-1 9v2h3l9 13-13-4h-3v1h-5v-3l-5-3-14 5v-2l-7 5-8-5-6 6h-3l-4 4-12-5-4 7v1l-2 3v4l1 1h2l1 4 7 1 5 2 5 5 6 1 1 2h11v-2h2v2h2l2 3 1 1h5l1-2-3-1v-8l2-1 1-3-2-4-4-1-3-6v-1l2-2 1-1 1 2 1 2 1 2 5-1 8 12 3-1 1 3v1l-3 2 1 3 3 3 6 1v1l-1 2h-1v7h-2v2l17 18h2l11-6 2-5 1-2v-2l-6-5h-2l-1-2 5-5v-4h-3l-4-2 2-2-7-6-1-1 1-2-1-1v-4l1-2h4l1-1-4-1-2-4 3-2 7-3 3-4 1 2h2l1-2 1-1-2-5 3 5 3-1 4-2v6l-1 1v2l4 3 8 1h7v3l-3 4-1 12 2 1v8l-2 4 2 3-3 5-1 2 3 3-1 2 9 8-1 1v2l1 1v5h-4l-1 1v3l2 2-2 1 1 2 7 4-1 2-2 1v6l1 1v4h-1l-1-1h-2l-6 6 7 15h4l2-2h2v-1h6l1 1 2-2h4l1 2h4l1-1h2v2l7 1 8-1 5-1 14-1 5-1 2-2h1l1 2 1 3 1 2h2l2-2h2v2h2v7l1 1v2l-1 1v15l1 1v2l-1 1v3l-1 2v3l-1 2v3l-1 4-2 2 9 9-2 1 1 2v3h2v4l-2 2h-2l1 2h-4v6h2v4l2 1v3h3v4l-2 1h2l2-1h4l1-1h2v2l1 1v6l1 2v6l1 1v3l-1 1v3h3l4 3v2l-3 2 1 2h5v4h-3l7 5v2l-2 2v3l7 9 1 7 2 2v1l1 2v1l1 3 2 1h6l11 2 12 1 1 1 2 1h4l1-1h5l1 2h4l2-1v-1h10l2 1 3-3v4l1 1 2 3 1 2h4l3 2h8l2 1 7 2 7 3 7 1 2 9 1 6 1 1-1 2-1 7-2 11v6l8-4 5 1 2 2 1-4h3v4h5l10-9 1-7 8-5h5v3l1 1v4l1 3 4 4h3l6 6 11 1h6l11-6-1-6h3l10 9 2 8 9 1 9-2 6-3 6-5 4-1h4l3 4h2l6-1-1-2-1-1 1-4v-7l-2-2v-5l-1-1 1-2-1-2 5-9v-3l8-11h4l3-2v-4l-1-2 2-3h-9l-6-6-5-1-1 2-11-7-2 2v2h-2l-1-3-2 2v3l-2 1-1-3h-2v2h-3l-1-1h-1l-6 1-1-2v1l-3 2v2l2 1v1l-11 1-2-1 1-4-2-1-4 1v1h-6l-1-1-3-1 4-2v-5l-3-2-2-4-1-2v-7l1-1 13-5h3l5-2 4-7v-2l-8-10v-7l-13 1-7-2v-4l-8-1-1-2-5 4-14 2-6 2-1 16 14 20-9 13-6-25h-9l-4-3 1-7h-11l8-7 2-4-6-11h-4v-3l3 1 1-6 3-2 5 2 16-4 2-1 4-5 3 4 5-3 4-1 2-3 7 4-6-7 3-8 2-7h5l-9-9v-2l-3-1h-4v1h-4l-7-5-5-1-3-1-3 1v6l-3 1 1 2h-5l-12 7-1-3 11-8v-3l6-9 2 1h5l1-2h8l6-9-2-4v-4l-6 2-2 1-7-4-18 10h-7l-2 5v3l2 1-1 3-7-1-4-9-9-9 1-7 2 4h4l1 2 4 2 1-3 1 1v3h2l6-7 11-3 5-4h5l3-3-1-11 2-1v-3l-2-1-2-7-1-6-3-1v-11l-1-6-13-4-14-14 3-3-12 1-5 2-6 1-3 5 1 2 7 10-5 5-5-14-15 8-2-8-7-10-7-6 10-4 8-4-6-1-2-4 4-1 5-2 1-6 1-3 3-1 1 5-1 14 3 6h5v-1h7l4-4-3-2v-7l4-3-2-2-4-2-3-2-7-1 2-3h3l-3-5 4-1 3-5v-5l-1-1-6-1-4-1-2-6h-3l-1-6 4-5v-4l-4-14h-6l-5-2-2-1-1-4 2-4-5-1-1-2h-3l-2 3-5-12-2-2-1-7 3-3v-5h1l1-3h-7l-5-4-4-1-1 2-4-1-6-7h-2v1l3 4-1 16-2 2v16l2 5 2 2v5l-5 1 8 10h5l3-3 5-4 2-3 1-1h8l-1 6-8 5 4 10 9-3v8l-6 5v6h-2v8l2 14 8 1-1 12-12-8-2-14h-18l-15-5-2-7-31-8-6 3-5-4 1-10-20-24-7-4s15-2 12-16-7-16-7-16h-6l-18-19-4-16-19-10 2-5 18 12h8l3-2 1-4-4 1-19-22v-8l2-5h3v-3l-3-5-2-10s13 2 15-17l2-3s-83-96-129-119Z" class="cls-12"/>
  <path d="m246 112-4 2 12 29 3-1 2 3 7-1 2 2v8l-8 2 76 71-8 14-8 4 2 7 2 2h4v5l23 12-1 4-1 3h-10l-3 9 5 2-2 17 4 1v6h-14l-15-1-9-10-27 13-6 8-2-1-20 15 1 12 2 1v13h-1v12h1v2h1l-1 4h5l3 2 3 2 5 10-4 6-1 9v2h3l9 13-13-4h-3v1h-5v-3l-5-3-14 5v-2l-7 5-8-5-6 6h-3l-4 4-12-5-4 7v1l-2 3v4l1 1h2l1 4 7 1 5 2 5 5 6 1 1 2h11v-2h2v2h2l2 3 1 1h5l1-2-3-1v-8l2-1 1-3-2-4-4-1-3-6v-1l2-2 1-1 1 2 1 2 1 2 5-1 8 12 3-1 1 3v1l-3 2 1 3 3 3 6 1v1l-1 2h-1v7h-2v2l17 18h2l11-6 2-5 1-2v-2l-6-5h-2l-1-2 5-5v-4h-3l-4-2 2-2-7-6-1-1 1-2-1-1v-4l1-2h4l1-1-4-1-2-4 3-2 7-3 3-4 1 2h2l1-2 1-1-2-5 3 5 3-1 4-2v6l-1 1v2l4 3 8 1h7v3l-3 4-1 12 2 1v8l-2 4 2 3-3 5-1 2 3 3-1 2 9 8-1 1v2l1 1v5h-4l-1 1v3l2 2-2 1 1 2 7 4-1 2-2 1v6l1 1v4h-1l-1-1h-2l-6 6 7 15h4l2-2h2v-1h6l1 1 2-2h4l1 2h4l1-1h2v2l7 1 8-1 5-1 14-1 5-1 2-2h1l1 2 1 3 1 2h2l2-2h2v2h2v7l1 1v2l-1 1v15l1 1v2l-1 1v3l-1 2v3l-1 2v3l-1 4-2 2 9 9-2 1 1 2v3h2v4l-2 2h-2l1 2h-4v6h2v4l2 1v3h3v4l-2 1h2l2-1h4l1-1h2v2l1 1v6l1 2v6l1 1v3l-1 1v3h3l4 3v2l-3 2 1 2h5v4h-3l7 5v2l-2 2v3l7 9 1 7 2 2v1l1 2v1l1 3 2 1h6l11 2 12 1 1 1 2 1h4l1-1h5l1 2h4l2-1v-1h10l2 1 3-3v4l1 1 2 3 1 2h4l3 2h8l2 1 7 2 7 3 7 1 2 9 1 6 1 1-1 2-1 7-2 11v6l8-4 5 1 2 2 1-4h3v4h5l10-9 1-7 8-5h5v3l1 1v4l1 3 4 4h3l6 6 11 1h6l11-6-1-6h3l10 9 2 8 9 1 9-2 6-3 6-5 4-1h4l3 4h2l6-1-1-2-1-1 1-4v-7l-2-2v-5l-1-1 1-2-1-2 5-9v-3l8-11h4l3-2v-4l-1-2 2-3h-9l-6-6-5-1-1 2-11-7-2 2v2h-2l-1-3-2 2v3l-2 1-1-3h-2v2h-3l-1-1h-1l-6 1-1-2v1l-3 2v2l2 1v1l-11 1-2-1 1-4-2-1-4 1v1h-6l-1-1-3-1 4-2v-5l-3-2-2-4-1-2v-7l1-1 13-5h3l5-2 4-7v-2l-8-10v-7l-13 1-7-2v-4l-8-1-1-2-5 4-14 2-6 2-1 16 14 20-9 13-6-25h-9l-4-3 1-7h-11l8-7 2-4-6-11h-4v-3l3 1 1-6 3-2 5 2 16-4 2-1 4-5 3 4 5-3 4-1 2-3 7 4-6-7 3-8 2-7h5l-9-9v-2l-3-1h-4v1h-4l-7-5-5-1-3-1-3 1v6l-3 1 1 2h-5l-12 7-1-3 11-8v-3l6-9 2 1h5l1-2h8l6-9-2-4v-4l-6 2-2 1-7-4-18 10h-7l-2 5v3l2 1-1 3-7-1-4-9-9-9 1-7 2 4h4l1 2 4 2 1-3 1 1v3h2l6-7 11-3 5-4h5l3-3-1-11 2-1v-3l-2-1-2-7-1-6-3-1v-11l-1-6-13-4-14-14 3-3-12 1-5 2-6 1-3 5 1 2 7 10-5 5-5-14-15 8-2-8-7-10-7-6 10-4 8-4-6-1-2-4 4-1 5-2 1-6 1-3 3-1 1 5-1 14 3 6h5v-1h7l4-4-3-2v-7l4-3-2-2-4-2-3-2-7-1 2-3h3l-3-5 4-1 3-5v-5l-1-1-6-1-4-1-2-6h-3l-1-6 4-5v-4l-4-14h-6l-5-2-2-1-1-4 2-4-5-1-1-2h-3l-2 3-5-12-2-2-1-7 3-3v-5h1l1-3h-7l-5-4-4-1-1 2-4-1-6-7h-2v1l3 4-1 16-2 2v16l2 5 2 2v5l-5 1 8 10h5l3-3 5-4 2-3 1-1h8l-1 6-8 5 4 10 9-3v8l-6 5v6h-2v8l2 14 8 1-1 12-12-8-2-14h-18l-15-5-2-7-31-8-6 3-5-4 1-10-20-24-7-4s15-2 12-16-7-16-7-16h-6l-18-19-4-16-19-10 2-5 18 12h8l3-2 1-4-4 1-19-22v-8l2-5h3v-3l-3-5-2-10s13 2 15-17l2-3s-83-96-129-119Z" class="cls-12"/>
</svg>
