<svg id="Layer_17" data-name="Layer 17" xmlns="http://www.w3.org/2000/svg" viewBox="0 0 892.33 954.67"><defs><style>.cls-1,.cls-12{fill:none;stroke:#000;}.cls-1{stroke-miterlimit:10;stroke-width:5px;}.cls-2{fill:#bad80a;}.cls-10,.cls-2,.cls-5,.cls-6,.cls-7,.cls-8,.cls-9{opacity:0.4;}.cls-3{fill:#09cc09;opacity:0.44;}.cls-4{fill:#00bcf2;opacity:0.2;}.cls-5{fill:#00188f;}.cls-6{fill:#68217a;}.cls-7{fill:#ec008c;}.cls-8{fill:#e81123;}.cls-9{fill:#ff8c00;}.cls-11{fill:#fff100;}.cls-12{stroke-linejoin:round;stroke-width:3px;}</style></defs><title>MAP1</title><path id="oaxaca" class="cls-1" d="M1464,418.67v-8l-3-4.67-3.67,1-4-4.67-2.67-3L1446,398l-1.67-8h-6V377.33l-7-.67-1.33-5,3.67,1L1432,363l-3.33-4.33V354l-15-18.17v-6.39l-8.31-6.39-16.62-6.39-5.75,2.56-12.15-3.2h-12.15l-12.79-12.79-11.51-5.11-7.67-5.11-9-8.31h-3.2l-9-8.55V286.6l-1.92,5.75,6.39,8.31v4.48l-7,5.75-0.64,7.67-5.11,1.28,5.11,6.39-5.11,5.11-7-5.75-5.11,3.84,5.11,9.59-7,4.48,5.11,7.67,5.75-6.39,1.92,9h7.67l2.56,5.75-3.84,7.67,3.84,1.92-3.84,11.51h-7l-1.28,19.18,12.15,2.56v20.46H1283.5l-10-9.28,0.33,7H1268l0.5,3-9.33,7.5-0.83,10.5-5.17,4.67h-6.83l-5.5,3.67V455l1.5,4.17-4.17,4.67-1.17,6.83-3.67,4h-2.67v6l-1.17,5-3.17,3.67h-17.67L1205,491l-6.83.83-2.5,2.5-2.83-3.67-3.33,2.83v5.17l-3.33,2.33-9.5-.83-5-4.5-11.83-.33-2.5,2.67-2.5,7-16.67,17.83v8l-1.67,1.33h-7.67l-1.67,1.67h-7l-0.67,1.33h-6.83l-6.33.67-8.33-5.67-3.5,1.33-4.33-4.83L1078.33,513l-0.83-3.67-8,2.17-2.83,2.67L1066,518.5l1.5,4.17-6.83.5-5.67,5-5.17-5-7.67,1.17L1030.33,531l-14.5-.17-9.33,6.5-6.5-.83-4.67,9.5-2.17,1.67-3.67.83-2.17,4.67-9.83,8.67-6.17-2.67-4.17-2.33-4.83,3L955.67,575h-6.83L944,577.83v5.5l-3.67,6.17-3.83,5.67-12.33.83-1-1.17-5.67-.17-6.83-6.83-6.83-.83-3,5.67-7-5.83v-2.67l-3.5-5.17v-6l-1.5-6v-6.83l-18.33-15.5V535s-20.29-12.47-20.66-12c0,0,0,0,0,0h0c0.28-.37,7-9.83,7-9.83l-1.17-19.33-1-14.5L853.83,472,847,463.83l-2.5-.17-3.33,1.67-9.33.83-7.67.5-6.5,5.67-15.5.17-16-4.83-6,2.17s-7.5,10.33-8,10.33S766,491.33,766,491.33s1.94,6.1,2.28,6.78a0.05,0.05,0,0,1,.05.05s0,0-.05-0.05c-0.44-.06-3.61,2.39-3.61,2.39l-4.83.33-2.17,3.5-6.33,9.5,3.67,1.83,4.17,9.5-4-.17-1.67,1.5,0.33,4.17-6.5,7.5v14.5l2.83,7.33s5.33,8.33,5.33,7.83,11.33,4.33,11.33,4.33l6.33,2.67,0.17,2.33L768.17,583l-5.33,2.33-1.17,6.83-2.5,7v13.17l7.17,10.5,2.17-7,5.17-5,5.5-1,4.67-2.17-0.17-4.17-4-3.67,0.33-8.67L791.83,576l4.83-.33,8.67,5.5L806,585.5l20.5,14,0.17,8.17-10,.17-3.67-4.5L802.67,606l-3.67.83h-5L794.5,619l-2.17,3.83-2.5,2.33-9.83,4-2.67,2.17-3.83,4v7.5L772.17,644l-0.5,3.67-1.33,1.5-0.5,2.83h-5L764,655h-7.67l-9-3.83H741L737.33,653l-8.5,1.17-5.33-3.33h-9.33V639l-5-3.67,4.5-6.17,1-2.67-9.5-.33-1.83-2-3,.33-4.67,2.67-4.17-1.67-1-4.5-9.5-.83L672.33,617,670,614l-3.17,1.67-4.33,6-2.17-3.83L656,618l-3.83-1.17-4.5,3.17-7-2.83-6,2.17-11.83-3.5v4.5L613.67,625l-6.33,4.83-3,7L603.5,647.5l2.17,5.83-3,5.17L598,660.67l-5.67,1.67-3.33,1.5-4,6v346.83h887.33V422.78h-5Z" transform="translate(-582.5 -64.5)"/><path id="veracruz" class="cls-1" d="M1035,129.5v7l2.5,12.5,5.5,5v10.5h-14.33L1017,177l-4,7-2.5,6.5H1005v12l-6,8-9.5,2.5v9h5l6.5,6-5.5,5-2,18.5,1,17,6,3.5,3.5,6.5,9-4,7,10h4l4.67,13H1038l5-10,4.5,0.5,7.5,9.5h10.5l3,4h7.5v6l8.5,2.5,3.5,4.5V326l4.5,5,10.5,15.5V351l14.5,17v15l3.5-6a33.91,33.91,0,0,0,14-16c4.5-11,0-3,0-3l12.5-5,8-7.5h11v-6l11-6,14,11,7-4,3-3h4l5,7.5h4.5l5.5,11,9,2v8l10-3v-8l13.5,1v15.5l4,6.5,4.5,0.5v8l-3,6.5,6,6,5,5.5,14,2.5v6.5h-10l10,9.28h22.77V402.32l-12.15-2.56,1.28-19.18h7l3.84-11.51-3.84-1.92,3.84-7.67-2.56-5.75H1296l-1.92-9-5.75,6.39-5.11-7.67,7-4.48-5.11-9.59,5.11-3.84,7,5.75,5.11-5.11-5.11-6.39,5.11-1.28,0.64-7.67,7-5.75v-4.48l-6.39-8.31,1.92-5.75V276.14l9,8.55h3.2l9,8.31,7.67,5.11,11.51,5.11L1358.69,316h12.15l12.15,3.2,5.75-2.56,16.62,6.39,8.31,6.39v6.39l15,18.17v4.67L1432,363l1.67,9.67-3.67-1,1.33,5,7,0.67V390h6l1.67,8,4.67,1.33,2.67,3,4,4.67,3.67-1,3,4.67v8l3.33,4.11h5V67H1033l-4.33,15,1.67,14.67-7,15,12,12.67Z" transform="translate(-582.5 -64.5)"/><path id="puebla" class="cls-1" d="M1033,67l-4.33,13.75,1.83,7v8.5L1023.25,111l12.25,13.25-0.5,5.25v7l2.5,12.5,5.5,5v10.5h-14.33L1017,177l-4,7-2.5,6.5H1005v12l-6,8-9.5,2.5v9h5l6.5,6-5.5,5-2,18.5,1,17,6,3.5,3.5,6.5,9-4,7,10h4l4.67,13H1038l5-10,4.5,0.5,7.5,9.5h10.5l3,4h7.5v6l8.5,2.5,3.5,4.5V326l4.5,5,10.5,15.5V351l14.5,17v15l3.5-6a33.91,33.91,0,0,0,14-16c4.5-11,0-3,0-3l12.5-5,8-7.5h11v-6l11-6,14,11,7-4,3-3h4l5,7.5h4.5l5.5,11,9,2v8l10-3v-8l13.5,1v15.5l4,6.5,4.5,0.5v8l-3,6.5,6,6,5,5.5,14,2.5v6.5h-10l0.33,7H1268l0.5,3-9.33,7.5-0.83,10.5-5.17,4.67h-6.83l-5.5,3.67V455l1.5,4.17-4.17,4.67-1.17,6.83-3.67,4h-2.67v6l-1.17,5-3.17,3.67h-17.67L1205,491l-6.83.83-2.5,2.5-2.83-3.67-3.33,2.83v5.17l-3.33,2.33-9.5-.83-5-4.5-11.83-.33-2.5,2.67-2.5,7-16.67,17.83v8l-1.67,1.33h-7.67l-1.67,1.67h-7l-0.67,1.33h-6.83l-6.33.67-8.33-5.67-3.5,1.33-4.33-4.83L1078.33,513l-0.83-3.67-8,2.17-2.83,2.67L1066,518.5l1.5,4.17-6.83.5-5.67,5-5.17-5-7.67,1.17L1030.33,531l-14.5-.17-9.33,6.5-6.5-.83-4.67,9.5-2.17,1.67-3.67.83-2.17,4.67-9.83,8.67-6.17-2.67-4.17-2.33-4.83,3L955.67,575h-6.83L944,577.83v5.5l-3.67,6.17-3.83,5.67-12.33.83-1-1.17-5.67-.17-6.83-6.83-6.83-.83-3,5.67-7-5.83v-2.67l-3.5-5.17v-6l-1.5-6v-6.83l-18.33-15.5V535s-20.33-12.5-20.67-12,7-9.83,7-9.83l-1.17-19.33-1-14.5L853.83,472,847,463.83l-2.5-.17-3.33,1.67-9.33.83-7.67.5-6.5,5.67-15.5.17-16-4.83-6,2.17s-7.5,10.33-8,10.33S766,491.33,766,491.33s2.33,7.33,2.33,6.83-3.67,2.33-3.67,2.33l-4.83.33-2.17,3.5-6.33,9.5,3.67,1.83,4.17,9.5-4-.17-1.67,1.5,0.33,4.17-6.5,7.5v14.5l2.83,7.33s5.33,8.33,5.33,7.83,11.33,4.33,11.33,4.33l6.33,2.67,0.17,2.33L768.17,583l-5.33,2.33-1.17,6.83-2.5,7v13.17l7.17,10.5,2.17-7,5.17-5,5.5-1,4.67-2.17-0.17-4.17-4-3.67,0.33-8.67L791.83,576l4.83-.33,8.67,5.5L806,585.5l20.5,14,0.17,8.17-10,.17-3.67-4.5L802.67,606l-3.67.83h-5L794.5,619l-2.17,3.83-2.5,2.33-9.83,4-2.67,2.17-3.83,4v7.5L772.17,644l-0.5,3.67-1.33,1.5-0.5,2.83h-5L764,655h-7.67l-9-3.83H741L737.33,653l-8.5,1.17-5.33-3.33h-9.33V639l-5-3.67,4.5-6.17,1-2.67-9.5-.33-1.83-2-3,.33-4.67,2.67-4.17-1.67-1-4.5-9.5-.83L672.33,617,670,614l-3.17,1.67-4.33,6-2.17-3.83L656,618l-3.83-1.17-4.5,3.17-7-2.83-6,2.17-11.83-3.5v4.5L613.67,625l-6.33,4.83-3,7L603.5,647.5l2.17,5.83-3,5.17L598,660.67l-5.67,1.67-3.33,1.5-4,6V67h448Z" transform="translate(-582.5 -64.5)"/><g id="Regiones_de_Oaxaca._Municipios_incluidos." data-name="Regiones de Oaxaca. Municipios incluidos."><g id="DISTRITO_11" data-name="DISTRITO 11"><polygon id="DISTRITO_11_SUR" data-name="DISTRITO 11 SUR" class="cls-2" points="640.83 707.17 637.17 711.17 628.83 728.5 632.17 760.5 636.17 780.17 651.17 788.83 668.17 792.17 668.17 797.17 676.17 799.5 680.5 804.83 706.83 793.83 715.17 775.67 736.17 762.96 733.17 757.83 733.5 756 736.17 756 736.17 749.83 738.83 746.17 746.5 744.17 746.5 741.5 742.83 741.5 736.5 733.33 727.17 724.5 727.83 719.17 718.83 712.5 710.5 709.42 707.17 703.5 701.83 702.17 700.17 704.5 689.5 697.5 687.67 700.83 683.83 700.17 681.83 704.5 678.17 702.17 662.83 704.83 664.17 709.42 661.17 712.17 657.5 709.42 656.5 705.5 653.17 709.42 651.17 705.17 645.17 705.83 640.83 707.17"/><polygon id="DISTRITO_11_NORTE" data-name="DISTRITO 11 NORTE" class="cls-2" points="304.95 501.42 290.83 499.17 282.5 514.5 272.5 516.5 272.99 521.44 280.83 523.5 291.5 534.83 290.5 563.33 292.92 566.17 295.17 559.83 299.24 558.52 297.42 551.83 302.67 553.5 305.43 557.17 330.14 557.17 345.17 553.17 345.17 539.17 345.17 533.17 332.58 530 320.5 521 314.17 530 307.5 514.5 304.95 501.42"/></g><g id="DISTRITO_10" data-name="DISTRITO 10"><path id="DISTRITO_10_NORTE" data-name="DISTRITO 10 NORTE" class="cls-3" d="M1056.25,897l6.58,22,12.83-4,4.83,2.5,2.5,24,14,3.5,10,4.25v-8l5.75-7.25,3.5-8.75v-6l-27-13,16.5-15.25,5.08,5.75H1136l11.25-13.5,9,2.75-2-20-8-1.75,2.75-8h12.5l1.75-5H1169l8.25-9.62-1.25-6.87-10-1.5-3-4.25-3,2.75h-8.5l-1,5.75,8.25,7v9l-11.25-3.25-10-10.08L1140,831l-3.75-17.5,0.25-26.83s-0.75-5.17-1.25-5.92-14.92-15-14.92-15l-4.83,2.5-8.25-8.75-2.25-8.75-2.75-33.25L1092,715l-0.25-5.75-7.42-3.58L1064.67,715l-0.33,5,5.42,5.25,3.5,10,4.25,5.5,1.25,8.25,1.44,7.6-5.69,10.65,3,6.67,3,38.33L1065,812l-29,30v9.5l3.25,1.5-6.25,3.5,1.75,25.5,12,11,3.25,3.75Z" transform="translate(-582.5 -64.5)"/><polygon id="DISTRITO_10_SUR" data-name="DISTRITO 10 SUR" class="cls-3" points="442.17 924.83 453.83 924.83 451.83 933.83 459.83 936.83 462.83 944.17 464.5 948.83 458.5 952.17 446.83 945.17 442.17 945.5 439.17 940.83 439.17 937.17 439.17 932.5 442.17 924.83"/></g><g id="DISTRITO_5" data-name="DISTRITO 5"><path id="DISTRITO_5-2" data-name="DISTRITO 5" class="cls-4" d="M1089.92,707.07c0.11-.07,1.42,7.93,1.42,7.93h8.25l4.08,33s5.33,9,5.33,10,3,8.17,3,8.17h7.25l9.08,5.46,5.67,8,3,7v57.5l12.33,7.17h6.79V847l-6.79-9.67L1151,832l8.88,1.33v-4l5.46,2v5l8.33-2L1178,842l1.75,22.33,9.83,16L1188,898.67l12.67-6,16.5-9,4.17-14.33,16.67-5,3-1.67,9.33-.33v-3l-2-1.67L1235,854l-4.67-5-7.67-1.67-5.5-10.67-4.5-25-1-18,3.33-7,7.67-15s7-2.46,8.33-1.87,4,3.92,4,3.92l3.67-3.92,5,6.58,2.67-8.46h16.33l9.67-5.21,8.67,5.21,5.33-1.71,7,8.83,3.33-7.12,2-13.87,13.67,0.33,4,5.67,5.33-1.67,5.33-7.67-5-.67-4-2-2.33,1.67-10.33-4.46-0.67-6.12,5.67-5.08-6,.67,2.67-5.79,2.67-15.54-13-1.33L1292,695.33l2.33-5.67-2-3-6-2.67-11-2.08L1266,678l-11.33-8.17V665l-19-17.67h-4.33l-4.67-5.67-4,1.33-5.5,1.33L1192,636.67l-0.33,4.33-17.81.72-4.19,7.61H1158l-4-8-12.2,20.45,8.53,11.89-19.33,3-13.62,7.83-9.32,11.59-3.05,5.25L1094.67,704Z" transform="translate(-582.5 -64.5)"/></g><g id="DISTRITO_4" data-name="DISTRITO 4"><polygon id="DISTRITO_4-2" data-name="DISTRITO 4" class="cls-5" points="470.83 463.17 470.83 490.75 481.25 526.46 481.17 557.17 457.11 586.52 455.17 635.5 477.54 645.07 481.17 650.5 486.17 650.5 500.83 641.17 506.5 643.17 512.17 639.5 520.83 639.17 530.17 624.17 541.17 614.42 548.5 612.17 567.83 609.17 558.5 596.17 564.83 589.83 570.5 579.83 575.83 585.17 587.17 584.83 589.83 577.5 602.5 575.17 609.5 575.17 609.5 572.17 623.17 576.83 612.83 561.83 612.83 557.17 616.83 554.83 620.17 549.5 625.17 549.17 633.5 539.5 650.5 539.17 661.17 528.17 661.17 516.17 650.17 506.17 649.17 509.17 644.17 509.17 633.17 497.17 625.83 508.83 621.5 507.83 622.17 503.5 616.83 503.17 609.17 503.83 603.83 509.17 600.83 501.5 588.83 498.75 588.5 485.17 587.17 483.17 587.83 479.17 574.17 467.25 574.5 460.83 572.5 457.5 571.17 445.83 567.17 444.17 555.17 457.5 552.76 466.59 536.83 470.5 523.25 470.5 513.83 465.83 507.17 464.5 494 445.17 483.5 448 483.5 452.17 483.83 459.5 470.83 463.17"/></g><g id="DISTRITO_3" data-name="DISTRITO 3"><polygon id="DISTRITO_3-2" data-name="DISTRITO 3" class="cls-6" points="345.17 531.5 345.17 553.17 334.17 554.83 327.83 558.5 319.5 557.17 307.5 557.17 302.67 553.5 297.42 553.5 297.42 557.17 319.83 573.83 319.83 579.5 327.5 575.17 357.83 588.5 376.5 606.17 382.83 613.5 386.17 613.5 388.5 629.5 388.5 634.17 397.17 654.5 376.5 658.5 381.5 668.5 390.33 668.5 397.17 659.5 410.5 660.5 407.5 668.5 409.17 691.83 402.17 691.83 393.83 693.83 393.17 696.83 382.83 701.5 390.33 715.17 410.5 704.5 419.5 704.17 426.5 706.83 426.5 713.5 431.83 715.17 431.83 719.5 436.17 719.5 447.17 717.5 461.83 722.17 489.5 706.17 497 691.5 497 685.83 494 675.5 489.83 670.17 489.17 665.17 480.83 655.5 481.17 650.5 479.33 645.83 455.17 635.5 457.17 585.17 481.17 557.17 481.5 527.5 472.83 491.17 472.17 464.17 466.5 457.5 446.66 467.13 431.83 465.17 422.86 473.17 417.49 474.65 409.88 481.93 405.83 484.17 397.21 496.17 382.5 493.17 370.99 510.54 364.17 509.5 359.83 521.83 353.83 530 345.17 531.5"/></g></g><g id="REGIÓN_CHAZUMBA" data-name="REGIÓN CHAZUMBA"><path id="REGIÓN_CHAZUMBA-2" data-name="REGIÓN CHAZUMBA" class="cls-7" d="M776.75,472L772,479.25l-4.25,6-3.75,5.5,3.5,5.25-1.25,3.5L760,502.25l-4,2.5-2.25,4.34-2.5,4.66,0.75,2.92,4.67,5.33,8.17,2.67H780l4.67-7.33L790,517s0-14.67,1.67-14.33,10.67,3,10.67,3v11l8,8L793.67,540v2l-10.33,2.67L782.67,550l8.67,9L791,566.33,786.83,571l-13.17,2.33-8.83-4.67,1.83-6.33-6-5.67h-12l5,11,16,5.67L772,577l-9.58,7.67V593H771l4.19-3.33,4.81-2.33,12-10.67,11.67,4.67L806,586l14.33,11.67,9.67-1.33L831.67,577l5.33,0.67,5,9.67h13l2.33-6.67,7-.33,3-6,3-3,3-7.67L887.93,566l-2.76-9.33-16.41-12V535l-20.09-11.33L855,512l-0.83-32-5.27-14.7-27.7,2.2-5.86,5.37H800.67l-16.33-5.17-4,.69Z" transform="translate(-582.5 -64.5)"/></g><g id="REGIÓN_SIERRA_NEGRA" data-name="REGIÓN SIERRA NEGRA"><path id="REGIÓN_SIERRA_NEGRA-2" data-name="REGIÓN SIERRA NEGRA" class="cls-8" d="M1019.5,460l-5.17-7.67,2.58-3.67h5.42l6-7.33,3-8-3-11h-14l4.33-7.17-4.33-2.17-9-10.12V392.67l13-8.67H1023l8.33-7.33,8.33,8,5-8,5.67,7,10.67-4.33,4.67,3.33,1.33,11.67,9.5-1.33,6.17-7,6.67-.33,4.67-4,4,0.33,2,8.33h9.67S1140.33,353,1141.33,353s15.67-7,15.67-7v9l22,28,10.33-6v12l-3.67,1.33-2.33-5.67-7.67,11.67-1.33,6.67-4.33,3.22-7.67,11.11-8.67-9.33h-9.33l-3.67,4.67-9,2.5-2.33,8.83-3,2-0.67,6.67-34-7.33-8.67,8,3.5,2.33v6.67l4.17,4.67,10.33-2.67,3-3.33h6.33l15.33-4.67,1,6.33,2,4.33-4.67,9,4.67,6.67,6.33,7.67h12.33l6-5.33-1.67-3.33L1164,450.33l9,3.33,10.67-6.67,1-10,4.67,1,2-6-2.33-3.67,7.33-2.33,12-6,6.67,4.67,6,5.67-3,1,3,6.33h3.33l2.33,7-6,7.67,2.67,9L1212.67,463l-5-4-7.33,1-0.33,4.67,1.67,5.67,0.33,4-5.67,2.33,1.33,2.67,3.67,6.67-3,4.33h-7l-3,7-4.67,2.67-8.67-1.67-3.67-3.67-7.67-1-6,1.67-3,7.33-5,6-12,13.33-1,8.67L1122.33,535h-15L1096,528.67h-6l-13.5-19v-7l-8-6.17v-6l-0.88-8.17-6.67-7.51-3.28-9.83-13.38-4.23L1037,447Z" transform="translate(-582.5 -64.5)"/></g><g id="REGIÓN_DEL_VALLE_ZAPOTITLÁN-TEHUACÁN" data-name="REGIÓN DEL VALLE ZAPOTITLÁN-TEHUACÁN"><path id="REGIÓN_DEL_VALLE_ZAPOTITLÁN-TEHUACÁN-2" data-name="REGIÓN DEL VALLE ZAPOTITLÁN-TEHUACÁN" class="cls-9" d="M908,388l-14-11.5,7-16-7-3.5,17-7-11-9.5-14.83,4L871,357l-15.5,2-6,.5-5-8,4-11-4-5-3,3-5.5-13-7,3.5-13.5-3.5L809,328l-7-6.5,3-5-18.17-17-7.33,12L770,321l-11.5-12L755,321.5s-3,25,0,24,17-1.75,17-1.75v9.75l5,2,12-11.75-2.17,18.75L793,370l9,6.5,4,29.72-4.5,5.28L795,409l-12.5-5.5,9.5,27-5.17,5.5v16.5l-2.33,13,16.5,4.83,13,2.17,10-7,17.5-.5,6.5-1,6,8.5,0.5,22,0.5,10.17,2,9.33-9.33,7.67,7.33,5.57,8.25,4.65,5.51,12.77,16.41,12.83,4.33,16L890,579l8,15.5,5-9,5.5,3,6.5,6h18.5l13-17.5,12.5-3.5,4.5-18.5,15,6,20-21,15.83-9s7.67,3.5,11.67,2,23-11,23-11l4,5,13-4V512.5h7.5l3-9.83-8-6.17v-6L1066,488l2-7h-4.5l-6-14.5-15-6.5-6-13-17,13-19-13V430.5l-3.5-19,9.5,4.5,7.83-3-8.83-9-2-16.5,6-6.5-6.5-19,5.5-6.5-2-6.5,7.83,4.5,15.17-21,1.5-5.5h13.5l2.75-10.5,9.5-6.25-14-2.25-8,10.75-10.75-7s-5.5,8-6.25,7.75-5.5-2.5-5.5-2.5l-6,6.75L1006,317.5l-13.75.75-0.5,6.75-3.25,4.75-0.5,7.5-8.75-1.75-7.5,5.25L971,354.25l-0.5,4.25-5.5,2.75-1.75-8-8.25-4L952.25,363l-7.5,1.75L941,345l-13.5-13.75L919,331l-2.25,7,3.5,3.75,0.5,5.5,9,9.5,6.75,5.75-3.75,7.5-9,11.75-8.67,6.75Z" transform="translate(-582.5 -64.5)"/></g><g id="REGIÓN_SEPTENTRIONAL" data-name="REGIÓN SEPTENTRIONAL"><g id="REGIÓN_SEPTENTRIONAL-2" data-name="REGIÓN SEPTENTRIONAL" class="cls-10"><path id="REGIÓN_SEPTENTRIONAL-3" data-name="REGIÓN SEPTENTRIONAL" class="cls-11" d="M983.41,197.33L970.74,183H957.41l1.33-6.33-7,3-3.83-11.33L938.07,175l-6.67-2-9-.67-19-43-6,5.67-4.67-2.33L891.07,138l-1.67,18.33-7,13s-4.33-5-6-4.33-33.33,0-33.33,0l1.33-7-12.33-.33v-3.33l-15.33-8v-6.67l3.33-1.67-3.33-4.67-2,3.33-8-2-3,6v12l-6.67,2.67v7.33L790.74,165l-5-1.33s-8.33,22.67-7,22.67,8.33,1.67,8.33,1.67l-7,5.67,13,13-4,12.67,12,1,8.33,5.67-6,14.67,20,9.33,0.67,4-7.67,18v6l-4.67,2.67-11.33,18.67V310l9,5.33L806.07,323l8.67,3.33h8l11,3.67,8-5.67,0.33,9,3.33,5.33,4.33-3.33,1,5.33,0.54,3.33-3.09,8,4.71,7.54L865,358.21l6-.21,9.93-6.67,7.74-6.33,14.67-4.67,9.67,5.33,1.33,6.67-12.67,3-3,.33,1.67,5.33h2.67l-3,9.67,0.33,5.67,11.67,14,8.67-2.67,19-23.67-20.67-25.33,4-9.67,7,0.33,9.67,11.33,5.33,8.67L945.41,361l3.67,3.67,5.33-1,3.67-12.33,7,1,2,8,3.67-.33,2.67-4.67,0.33-16.67,7.33-1.33,9-1.33v-6.67L996.74,319l-3.33-5-28.33,17.33-2.67,5-2-.33,2-11.67,8.33-3.67,10-3.67,7-9-6-8.67-0.67-3-14.67-2.67,2-10,11-2,13.67-11,6-8-4.33-9.33,1.33-8.67,3-10,5-6.67-12.67-5,2-9.33,10.67-7-3-2L995.41,202l-3.33,3-10-1Z" transform="translate(-582.5 -64.5)"/></g></g><path class="cls-12" d="M829,176.56l-3.56,2.06,11.87,28.69,3.13-1.12,1.69,3.06,7.69-.75,2.06,2v7.56l-8.25,2.31,75.88,70.88L911,305l-7.37,4.13,1.75,7.5,2.38,2.13H911l0.5,4.88,23.25,12L933.38,339,932,342.25h-9.25l-3.25,8.88,4.5,2.13-1.87,17.13,4.13,0.75,0.38,6.13H912.38l-14.5-1-9.87-10-26.75,13-6,8.63L853,386l-19.12,15,0.25,12.75,2,0.88L836.5,427h-1.12l0.13,12.25h0.75v2.63h1.38l-1.5,3.88h5.38l3.38,1.75,2.25,1.88,5.75,10.38-4,5.38L847,474v2.88h3l9.25,12.5-12.62-3.75L843.5,485l0.13,1.88h-5.5l0.75-3-5.62-3.5L819,485.63V483l-6.62,5.13-7.5-4.5-6.5,5.75h-2.75l-4.5,4L779.75,488l-4.12,7v1.88L773,499v4.38l1.5,1.38h2.25l0.25,3.88,7.13,1,5,1.88,5.5,4.75,6.13,1.38,0.38,1.38h11.13v-1.37l2.25-.25,0.38,1.63h1.75l1.75,3.88,1.38,0.88h4.88l0.5-2.75-2.25-.25-0.37-8,1.5-.87,1-3.5L823.63,504l-4.12-.75-2.87-5.75V496l1.38-1.75,1.75-.37,1.13,1.13,1,2.38,0.13,2,5-.5,8,11.38,3.13-.37,1.13,2.38v1.5l-2.62,2.13,0.63,2.63,3.25,2.88,5.75,1,0.5,1.38-1.25,1.63h-1.37l0.5,6.88H842l0.38,1.88L859.5,552.5h2.13l10.88-6.12,1.63-5.12,1.13-2.12V537l-5.5-4.12-2.5-.12-0.5-2,4.75-4.87v-4.12l-2.87-.5-3.87-1.75,1.5-2.37-6.87-5.25-0.87-1.12,1.38-2.62-1.5-.62v-4l1.25-2.25,3.5-.12,1.13-1.12-3.37-1-2.62-3.37,3.13-2.25,6.63-3.12,3.13-3.75,1.75,1.63,1.38-.12,0.88-1.37,1.25-1.37-1.5-4.37,2.25,4.25,3.75-.5,3.38-1.87,0.13,5.63-0.87.63-0.12,2.75,3.63,2.38,8.38,0.88,6.63,0.88V498l-2.87,4.5-0.25,11.88,1.13,0.88,0.25,8.25-2.37,3.5,2.5,3.75-3.5,4.75-0.12,2.38L899,540l-0.25,2.25,8.88,8.25-1.25.88v2l0.88,0.88,0.25,5.63H903l-0.62.88v2.38l2.13,2.38-1.62.88,0.25,2.25L910.5,572l-1.12,2.88-2.37.88,0.13,5.75,1.5,0.75,0.13,3.75-1.5.63-1.12-1.25-2.12.13-5.12,6.38,6.38,14.5h4l2.25-1.87,2.25-.25L913.38,603h6.38l0.88,1.25,1.5-1.37H926l1,1.25h4.5l0.88-1.12h2.38v2l6.75,1.38,7.5-1,5.13-1.12L968,603.13l5.5-.87,1.63-1.87h1.63l0.63,2.25,0.88,2.88,1.38,1.5h2.25l1.88-1.62h1.38V607h2.75v7.38l1,1.13v2l-1.37,1.13,0.13,14.88,1.25,0.75v2.25l-1.25,1,0.13,3.38-1.5,1.38,0.13,3.63-1,1.13v3.25l-1,3.88-1.5,2.5,8.75,8.38L989,666.63l1.63,1.5,0.25,3.75h1.25v3.75l-1.5,1.5h-1.87l0.25,2.25h-3.5l0.13,6.13h1.88l0.38,3.75,1.38,0.88,0.5,3h2.38v4.25l-1.37,1h2.13l1.13-1,4,0.13,1.5-1h1.88v2.38l1.13,0.75v6.13l0.88,1.25v6.25l1.38,1.38v2.75l-1.62,1.5V721H1006l4.38,3.5V726l-2.75,2,1.25,2.5H1013V734h-2.62l7.5,5.5v2.13l-2.12,1.38-0.12,3.5,6.75,9.13,1.13,7.25,2,1.38v1.5l0.88,1.38v1.75l1.38,2.63,1.25,1.25h6.13l11,1.38,12.5,1.13,0.75,1.38,2,1.25H1065l1.13-1h5.75l0.75,1.63h3.88l1.75-1.37,0.63-1.12H1088v0.88l2,0.25,3.63-3v4.38l1.13,1.38,1.38,2.75,1.63,1.38,4.13,0.88,2.38,1.75h8.63l1.13,1,7.38,1.38,6.88,3.5,7.25,0.88L1137,802l1.13,6.38,1.63,1.5-1.5,1.75-1.25,7.25L1135.13,829l0.25,6.75,8.38-4.37,4.75,0.88,2.13,1.75,1.25-3.87,2.38,0.38V834l5.25,0.25,9.63-8.62,1.38-7.37,7.88-4.87L1183,813v3.88l1.13,0.38v3.25l0.75,0.63,0.63,3.25,4.25,3.75,2.75-.12,6.13,6.38,10.5,1.38h6.5l10.63-6-0.62-6.37h3.13l10,8.88,1.25,8.38,9.25,1,9.13-1.75,6.13-3.25,5.5-4.87,4.13-1.37,4.13,0.38,3.63,3.88,2-.37,5.88-.75-1.37-2.37-1.25-1,1.63-3.25-0.25-7.5-1.62-2.12v-4.62l-1.5-1.37,1.5-1.75-1.25-2.5,5-8.62V795l8.25-10.12,3.13-.5,3.38-2V778.5l-0.75-2.12,1.38-2.62-8.5-.5L1291,767l-4.25-.37-1.37,1.63L1274.63,761l-2,2.13-0.5,2.13-2,.13-0.37-2.75-2.62,1.88v3.25l-2.12.75-0.12-2.62-2.37-.25-0.12,1.5-2.5.25-1-1.37-1.62.75-5.37.25-1.37-1.37-0.5,1.13-2.87,1.88-0.12,1.75,2.5,0.63v1.63l-11.12.63-2-.62,0.63-4-1.37-1.5-3.87.88-0.25,1.13-5.87-.12-0.75-1-3.5-1,3.63-1.87,0.25-4.75L1222,758l-1.25-3.12-1.25-2.12-0.12-6.87,1.38-1.12,13.13-4.87,2.38-.87,5.13-1.87,3.63-6.62,0.25-2.5-7.37-9.5V711l-13.54,1.67-6.5-1.83-0.33-4.17-8-1-0.67-2.17-5.33,4.17-14.5,1.5-5.83,2.33-0.67,15.67,14.17,20.33-8.83,12.67-6.17-24.83-9.33-.33-3.67-2.33,0.33-7.17-10.67-.5,8-7,2.17-3.5-6.5-11.17-4-.17,0.5-2.17h3l0.83-5.17,3.17-2.33,4.83,1.67,16.33-4,2-.5s2.67-4.83,3.33-4.67,2.83,3.5,3.5,3.5,5-3.5,5-3.5l4.33-.67,1.17-2.83,7,4.17-5.5-7,2.83-8.17,2.5-7,5-.5-9-8.67-0.17-2-3.33-.83-3.5-.33-0.17,1.5-4.17-.17-7.17-5.33-5.33-.83-2.67-.83-2.83,1V653l-2.67,1.67,0.17,2-4.67-.17-11.67,6.5-1.33-2.17,11.5-8.5L1170.5,649s5-8.5,5.5-8.5a17.86,17.86,0,0,1,2.83,1l4.17-.5,1.33-1.83,7.67,0.5,6.5-9-2.5-3.83,0.83-4.17-6.5,1.67-1.5,1.17-7.83-3.83-17.33,9.67-7.17.17-2,5,0.17,3.17,1.67,0.83-1.17,2.83-6.5-.67s-2.5-8.5-3.67-8.83-10-9.5-10-9.5l1.5-7,2,4.5,4-.17,1,2.17L1147,625l1.17-2.67,1.83,1.17-1,2.83h2.33l6.5-6.83,10.17-2.83,5.83-3.83h5l2.17-3.5-0.33-11,1.83-.67-0.33-2.83-1.5-1.67-2.17-6.83-1.5-5.83-2.33-1-0.17-10.83-0.67-5.83-13.5-4.5-13.83-13.5,2.5-3-11.67.5-4.67,1.67-6.5,1.17-2.83,4.83,1.5,2.5,6.67,9.67L1126,567l-4.83-13.83-14.83,8.33s-0.83-6.5-2-7.83-6.67-10-6.67-10l-7-5.83,10.33-4.17,7.33-4.67-6.33-.83-1.17-3.67,3.67-1.5,4.83-1.83,1.33-5.5L1111,512l3.67-.17,0.5,4.33-1,14.33,3.67,5.83,4.33,0.17,0.17-1.33,7,0.33,3.67-3.83-2.5-2-0.33-7.17,4.67-2.67L1132.5,517l-4.33-1.33-2.33-2.17-7-.83,1.83-3.57h3l-2.83-4.93,3.33-.33,3.5-5,0.17-5-1.67-1.17-5.33-1-4-1.67-2.5-5.17h-3.17l-0.33-6,4-5.33-0.17-4.5-3.83-13.67h-6.17l-4.83-1.5-2.83-1.67-0.17-3.67,1.83-4.33-5.33-.5-0.5-2-3.33.33-2.17,2.33-4.67-11.67-2.17-2.17-0.5-6.83,3-3-0.5-5,1.33-.5,0.5-2.33-6.5-.67-4.83-4-4.17-.33-0.83,1.5-4-1.17-6.5-6.83h-2.33l0.5,1.33,2.5,4.17-0.5,15.67-2.33,1.67,0.33,16.5L1057,445l2,2.17v5l-4.83,1.17,8.5,10.17,4.33-.33,3.83-2.67,4.5-3.83L1077,453l1.83-1H1086l-0.33,6.67-8,4.83,3.5,9.67,8.83-2.33,0.17,6.33v1.5l-6.17,4.5,0.17,6.67-1.67-.17,0.17,7.33,1.83,14.17,8,1.17-1.33,12.5-11.33-8.67-2.17-13.83h-18.5l-14.83-5-2.17-7.33L1011,482l-6,3.33-4.83-3.83,1.17-9.67-20-24.67-6.83-3.83s15.33-1.83,11.67-15.67-6.83-15.83-6.83-15.83l-5.5.17-18.5-19.67s-3.67-15.83-4.17-16.17-18.67-10-18.67-10l2.33-4.33L952.33,373l7.67,0.67,3.17-2,1.67-4.5L960,368.5l-19-22.17,0.17-7.33,2-5.67h3.5l-0.33-3.17L943,325l-1.5-9.83S954.67,317,956.33,298l2.17-2.33S875.83,199.63,829,176.56Z" transform="translate(-582.5 -64.5)"/><path class="cls-12" d="M828,176.56l-3.56,2.06,11.87,28.69,3.13-1.12,1.69,3.06,7.69-.75,2.06,2v7.56l-8.25,2.31,75.88,70.88L910,305l-7.37,4.13,1.75,7.5,2.38,2.13H910l0.5,4.88,23.25,12L932.38,339,931,342.25h-9.25l-3.25,8.88,4.5,2.13-1.87,17.13,4.13,0.75,0.38,6.13H911.38l-14.5-1-9.87-10-26.75,13-6,8.63L852,386l-19.12,15,0.25,12.75,2,0.88L835.5,427h-1.12l0.13,12.25h0.75v2.63h1.38l-1.5,3.88h5.38l3.38,1.75,2.25,1.88,5.75,10.38-4,5.38L846,474v2.88h3l9.25,12.5-12.62-3.75L842.5,485l0.13,1.88h-5.5l0.75-3-5.62-3.5L818,485.63V483l-6.62,5.13-7.5-4.5-6.5,5.75h-2.75l-4.5,4L778.75,488l-4.12,7v1.88L772,499v4.38l1.5,1.38h2.25l0.25,3.88,7.13,1,5,1.88,5.5,4.75,6.13,1.38,0.38,1.38h11.13v-1.37l2.25-.25,0.38,1.63h1.75l1.75,3.88,1.38,0.88h4.88l0.5-2.75-2.25-.25-0.37-8,1.5-.87,1-3.5L822.63,504l-4.12-.75-2.87-5.75V496l1.38-1.75,1.75-.37,1.13,1.13,1,2.38,0.13,2,5-.5,8,11.38,3.13-.37,1.13,2.38v1.5l-2.62,2.13,0.63,2.63,3.25,2.88,5.75,1,0.5,1.38-1.25,1.63h-1.37l0.5,6.88H841l0.38,1.88L858.5,552.5h2.13l10.88-6.12,1.63-5.12,1.13-2.12V537l-5.5-4.12-2.5-.12-0.5-2,4.75-4.87v-4.12l-2.87-.5-3.87-1.75,1.5-2.37-6.87-5.25-0.87-1.12,1.38-2.62-1.5-.62v-4l1.25-2.25,3.5-.12,1.13-1.12-3.37-1-2.62-3.37,3.13-2.25,6.63-3.12,3.13-3.75,1.75,1.63,1.38-.12,0.88-1.37,1.25-1.37-1.5-4.37,2.25,4.25,3.75-.5,3.38-1.87,0.13,5.63-0.87.63-0.12,2.75,3.63,2.38,8.38,0.88,6.63,0.88V498l-2.87,4.5-0.25,11.88,1.13,0.88,0.25,8.25-2.37,3.5,2.5,3.75-3.5,4.75-0.12,2.38L898,540l-0.25,2.25,8.88,8.25-1.25.88v2l0.88,0.88,0.25,5.63H902l-0.62.88v2.38l2.13,2.38-1.62.88,0.25,2.25L909.5,572l-1.12,2.88-2.37.88,0.13,5.75,1.5,0.75,0.13,3.75-1.5.63-1.12-1.25-2.12.13-5.12,6.38,6.38,14.5h4l2.25-1.87,2.25-.25L912.38,603h6.38l0.88,1.25,1.5-1.37H925l1,1.25h4.5l0.88-1.12h2.38v2l6.75,1.38,7.5-1,5.13-1.12L967,603.13l5.5-.87,1.63-1.87h1.63l0.63,2.25,0.88,2.88,1.38,1.5h2.25l1.88-1.62h1.38V607h2.75v7.38l1,1.13v2l-1.37,1.13,0.13,14.88,1.25,0.75v2.25l-1.25,1,0.13,3.38-1.5,1.38,0.13,3.63-1,1.13v3.25l-1,3.88-1.5,2.5,8.75,8.38L988,666.63l1.63,1.5,0.25,3.75h1.25v3.75l-1.5,1.5h-1.87l0.25,2.25h-3.5l0.13,6.13h1.88l0.38,3.75,1.38,0.88,0.5,3h2.38v4.25l-1.37,1h2.13l1.13-1,4,0.13,1.5-1h1.88v2.38l1.13,0.75v6.13l0.88,1.25v6.25l1.38,1.38v2.75l-1.62,1.5V721H1005l4.38,3.5V726l-2.75,2,1.25,2.5H1012V734h-2.62l7.5,5.5v2.13l-2.12,1.38-0.12,3.5,6.75,9.13,1.13,7.25,2,1.38v1.5l0.88,1.38v1.75l1.38,2.63,1.25,1.25h6.13l11,1.38,12.5,1.13,0.75,1.38,2,1.25H1064l1.13-1h5.75l0.75,1.63h3.88l1.75-1.37,0.63-1.12H1087v0.88l2,0.25,3.63-3v4.38l1.13,1.38,1.38,2.75,1.63,1.38,4.13,0.88,2.38,1.75h8.63l1.13,1,7.38,1.38,6.88,3.5,7.25,0.88L1136,802l1.13,6.38,1.63,1.5-1.5,1.75-1.25,7.25L1134.13,829l0.25,6.75,8.38-4.37,4.75,0.88,2.13,1.75,1.25-3.87,2.38,0.38V834l5.25,0.25,9.63-8.62,1.38-7.37,7.88-4.87L1182,813v3.88l1.13,0.38v3.25l0.75,0.63,0.63,3.25,4.25,3.75,2.75-.12,6.13,6.38,10.5,1.38h6.5l10.63-6-0.62-6.37h3.13l10,8.88,1.25,8.38,9.25,1,9.13-1.75,6.13-3.25,5.5-4.87,4.13-1.37,4.13,0.38,3.63,3.88,2-.37,5.88-.75-1.37-2.37-1.25-1,1.63-3.25-0.25-7.5-1.62-2.12v-4.62l-1.5-1.37,1.5-1.75-1.25-2.5,5-8.62V795l8.25-10.12,3.13-.5,3.38-2V778.5l-0.75-2.12,1.38-2.62-8.5-.5L1290,767l-4.25-.37-1.37,1.63L1273.63,761l-2,2.13-0.5,2.13-2,.13-0.37-2.75-2.62,1.88v3.25l-2.12.75-0.12-2.62-2.37-.25-0.12,1.5-2.5.25-1-1.37-1.62.75-5.37.25-1.37-1.37-0.5,1.13-2.87,1.88-0.12,1.75,2.5,0.63v1.63l-11.12.63-2-.62,0.63-4-1.37-1.5-3.87.88-0.25,1.13-5.87-.12-0.75-1-3.5-1,3.63-1.87,0.25-4.75L1221,758l-1.25-3.12-1.25-2.12-0.12-6.87,1.38-1.12,13.13-4.87,2.38-.87,5.13-1.87,3.63-6.62,0.25-2.5-7.37-9.5V711l-13.54,1.67-6.5-1.83-0.33-4.17-8-1-0.67-2.17-5.33,4.17-14.5,1.5-5.83,2.33-0.67,15.67,14.17,20.33-8.83,12.67-6.17-24.83-9.33-.33-3.67-2.33,0.33-7.17-10.67-.5,8-7,2.17-3.5-6.5-11.17-4-.17,0.5-2.17h3l0.83-5.17,3.17-2.33,4.83,1.67,16.33-4,2-.5s2.67-4.83,3.33-4.67,2.83,3.5,3.5,3.5,5-3.5,5-3.5l4.33-.67,1.17-2.83,7,4.17-5.5-7,2.83-8.17,2.5-7,5-.5-9-8.67-0.17-2-3.33-.83-3.5-.33-0.17,1.5-4.17-.17-7.17-5.33-5.33-.83-2.67-.83-2.83,1V653l-2.67,1.67,0.17,2-4.67-.17-11.67,6.5-1.33-2.17,11.5-8.5L1169.5,649s5-8.5,5.5-8.5a17.86,17.86,0,0,1,2.83,1l4.17-.5,1.33-1.83,7.67,0.5,6.5-9-2.5-3.83,0.83-4.17-6.5,1.67-1.5,1.17-7.83-3.83-17.33,9.67-7.17.17-2,5,0.17,3.17,1.67,0.83-1.17,2.83-6.5-.67s-2.5-8.5-3.67-8.83-10-9.5-10-9.5l1.5-7,2,4.5,4-.17,1,2.17L1146,625l1.17-2.67,1.83,1.17-1,2.83h2.33l6.5-6.83,10.17-2.83,5.83-3.83h5l2.17-3.5-0.33-11,1.83-.67-0.33-2.83-1.5-1.67-2.17-6.83-1.5-5.83-2.33-1-0.17-10.83-0.67-5.83-13.5-4.5-13.83-13.5,2.5-3-11.67.5-4.67,1.67-6.5,1.17-2.83,4.83,1.5,2.5,6.67,9.67L1125,567l-4.83-13.83-14.83,8.33s-0.83-6.5-2-7.83-6.67-10-6.67-10l-7-5.83,10.33-4.17,7.33-4.67-6.33-.83-1.17-3.67,3.67-1.5,4.83-1.83,1.33-5.5L1110,512l3.67-.17,0.5,4.33-1,14.33,3.67,5.83,4.33,0.17,0.17-1.33,7,0.33,3.67-3.83-2.5-2-0.33-7.17,4.67-2.67L1131.5,517l-4.33-1.33-2.33-2.17-7-.83,1.83-3.57h3l-2.83-4.93,3.33-.33,3.5-5,0.17-5-1.67-1.17-5.33-1-4-1.67-2.5-5.17h-3.17l-0.33-6,4-5.33-0.17-4.5-3.83-13.67h-6.17l-4.83-1.5-2.83-1.67-0.17-3.67,1.83-4.33-5.33-.5-0.5-2-3.33.33-2.17,2.33-4.67-11.67-2.17-2.17-0.5-6.83,3-3-0.5-5,1.33-.5,0.5-2.33-6.5-.67-4.83-4-4.17-.33-0.83,1.5-4-1.17-6.5-6.83h-2.33l0.5,1.33,2.5,4.17-0.5,15.67-2.33,1.67,0.33,16.5L1056,445l2,2.17v5l-4.83,1.17,8.5,10.17,4.33-.33,3.83-2.67,4.5-3.83L1076,453l1.83-1H1085l-0.33,6.67-8,4.83,3.5,9.67,8.83-2.33,0.17,6.33v1.5l-6.17,4.5,0.17,6.67-1.67-.17,0.17,7.33,1.83,14.17,8,1.17-1.33,12.5-11.33-8.67-2.17-13.83h-18.5l-14.83-5-2.17-7.33L1010,482l-6,3.33-4.83-3.83,1.17-9.67-20-24.67-6.83-3.83s15.33-1.83,11.67-15.67-6.83-15.83-6.83-15.83l-5.5.17-18.5-19.67s-3.67-15.83-4.17-16.17-18.67-10-18.67-10l2.33-4.33L951.33,373l7.67,0.67,3.17-2,1.67-4.5L959,368.5l-19-22.17,0.17-7.33,2-5.67h3.5l-0.33-3.17L942,325l-1.5-9.83S953.67,317,955.33,298l2.17-2.33S874.83,199.63,828,176.56Z" transform="translate(-582.5 -64.5)"/></svg>